<svg xmlns="http://www.w3.org/2000/svg" viewBox="0 0 5387.48545 4958.75486"><title>Asset 29</title><g id="Layer_2" data-name="Layer 2"><g id="Cheers"><path d="M2594.6408,1701.254a91.76038,91.76038,0,0,0-50.03952-49.3221L1183.1318,1099.52426a91.92176,91.92176,0,0,0-119.62852,50.57758L442.04474,2681.77742c-171.28222,422.19723,32.82162,905.10548,455.06368,1076.56706a821.96636,821.96636,0,0,0,309.698,60.62135c326.602,0,636.70355-194.95683,766.86907-515.72987l621.50338-1531.67559A91.83251,91.83251,0,0,0,2594.6408,1701.254Z" style="fill:#e6ecff"/><path d="M517.28337,4786.12749a91.81537,91.81537,0,0,1-85.05821-126.35427L846.53085,3638.716a91.83974,91.83974,0,0,1,170.2061,69.051L602.43126,4728.82417A91.86864,91.86864,0,0,1,517.28337,4786.12749Z" style="fill:#376cfb"/><path d="M942.709,4958.75486a91.77679,91.77679,0,0,1-34.48063-6.72574l-850.896-345.25474a91.83974,91.83974,0,1,1,69.051-170.2061l850.896,345.25474A91.83269,91.83269,0,0,1,942.709,4958.75486Z" style="fill:#4294ff"/><path d="M718.25974,2001.00905l-276.215,680.76837c-171.28222,422.19723,32.82162,905.10548,455.06368,1076.56706a821.96636,821.96636,0,0,0,309.698,60.62135c326.602,0,636.70355-194.95683,766.86907-515.72987l276.23743-680.77958Z" style="fill:#4294ff"/><path d="M4945.42205,2681.77742,4323.96351,1150.10184a91.87951,91.87951,0,0,0-119.62852-50.57758L2842.86551,1651.93185a91.87373,91.87373,0,0,0-50.57758,119.62852L3413.74647,3303.236c83.04049,204.55222,240.69187,364.5352,444.0783,450.535a821.22468,821.22468,0,0,0,632.48876,4.5735C4912.60043,3586.8829,5116.70427,3103.97465,4945.42205,2681.77742Z" style="fill:#e6ecff"/><path d="M4870.18342,4786.12749a91.89877,91.89877,0,0,1-85.10305-57.30332L4370.685,3707.7669a91.83974,91.83974,0,1,1,170.2061-69.051l414.39537,1021.05727a91.81538,91.81538,0,0,1-85.103,126.35427Z" style="fill:#376cfb"/><path d="M4444.66816,4958.75486a91.83268,91.83268,0,0,1-34.52548-176.93184l850.94085-345.25474a91.83974,91.83974,0,0,1,69.05095,170.2061l-850.94085,345.25474A91.66515,91.66515,0,0,1,4444.66816,4958.75486Z" style="fill:#4294ff"/><path d="M3857.82477,3753.771a821.22468,821.22468,0,0,0,632.48876,4.5735c422.2869-171.46158,626.39074-654.36983,455.10852-1076.56706l-276.215-680.774L3137.54828,2622.50122,3413.74647,3303.236C3496.787,3507.78818,3654.43834,3667.77116,3857.82477,3753.771Z" style="fill:#4294ff"/><path d="M2693.73339,1101.94553a91.80465,91.80465,0,0,1-91.82879-91.8288V91.82879a91.82879,91.82879,0,0,1,183.65759,0v918.28794A91.80465,91.80465,0,0,1,2693.73339,1101.94553Z" style="fill:#4294ff"/><path d="M3152.78769,1010.11673a91.8205,91.8205,0,0,1-71.65157-149.22179l367.31517-459.144c31.83518-39.368,89.49721-46.09375,129.13424-14.34825A91.98119,91.98119,0,0,1,3591.93378,516.537l-367.31517,459.144A91.99641,91.99641,0,0,1,3152.78769,1010.11673Z" style="fill:#4294ff"/><path d="M2234.63426,1010.11673a91.4801,91.4801,0,0,1-71.74124-34.4358L1795.57784,516.537a91.83861,91.83861,0,1,1,143.39282-114.786l367.31517,459.144a91.8205,91.8205,0,0,1-71.65157,149.22179Z" style="fill:#4294ff"/></g></g></svg>