<?xml version="1.0" encoding="utf-8"?>
<!-- Generator: Adobe Illustrator 25.2.0, SVG Export Plug-In . SVG Version: 6.00 Build 0)  -->
<svg version="1.1" id="Layer_1" xmlns="http://www.w3.org/2000/svg" xmlns:xlink="http://www.w3.org/1999/xlink" x="0px" y="0px"
	 viewBox="0 0 486 486" style="enable-background:new 0 0 486 486;" xml:space="preserve">
<style type="text/css">
	.st0{fill:#EF5350;}
	.st1{fill-rule:evenodd;clip-rule:evenodd;fill:#FFFFFF;}
</style>
<circle class="st0" cx="243" cy="243" r="240"/>
<g>
	<path class="st1" d="M271.8,375.7h-51.4c-0.1,0-0.2,0-0.3,0h-9.7c-14.7,0-26.5,8.8-29.2,20.9H301
		C298.4,384.5,286.5,375.7,271.8,375.7z"/>
	<path class="st1" d="M264.1,183.1c2.4-1.2,4.8-2.3,7.2-3.5l9.5-29.4h-160c6.1,9,12.2,17.7,18.1,26.2c3,4.3,5.9,8.5,8.8,12.7
		C198,215,228.7,200.2,264.1,183.1z"/>
	<path class="st1" d="M364.7,92.6c-1.1-2.6-4.1-3.9-6.8-2.8l-64.1,26.4c-1.4,0.6-2.5,1.7-2.9,3.2l-6.6,20.4h10.9l4.9-15L362,99.3
		C364.5,98.3,365.8,95.2,364.7,92.6z"/>
	<path class="st1" d="M284.2,173.7c20.5-8.9,42.7-15.8,70.7-13.8c2.2-3.2,4.4-6.4,6.6-9.7h-69.6L284.2,173.7z"/>
	<path class="st1" d="M279.8,187L263,238.7c-0.7,2.2-2.7,3.6-4.9,3.6c-0.5,0-1.1-0.1-1.6-0.2c-2.7-0.9-4.2-3.8-3.3-6.5l13.7-42.4
		c-17.8,8.6-34.7,16.6-54.3,19.3c-4.5,0.6-9,0.9-13.5,0.9c-13.1,0-26.4-2.6-40.1-7.9c33,48.9,59.4,95.9,65.9,159.8h32.5
		c3.6-33.9,13.2-65.5,30.1-99.1c15.7-31.2,35.7-60.3,56.9-91.2c1.2-1.7,2.3-3.4,3.5-5.1C321.4,169.4,300,177.6,279.8,187z
		 M200.7,245.4l-3.5-6.1c-1.7-2.9-0.7-6.6,2.2-8.3l9.6-5.5c2.9-1.7,6.6-0.7,8.3,2.2l3.5,6.1c1.7,2.9,0.7,6.6-2.2,8.3l-9.6,5.5
		C206.1,249.3,202.4,248.3,200.7,245.4z M229.3,290.3c-6,0-10.8-4.8-10.8-10.8s4.8-10.8,10.8-10.8s10.8,4.8,10.8,10.8
		S235.3,290.3,229.3,290.3z M263.7,273.7c-5.5,0-10-4.5-10-10s4.5-10,10-10s10,4.5,10,10S269.2,273.7,263.7,273.7z M307,205.2
		l-8.1,4.7c-2.5,1.4-5.6,0.6-7.1-1.9l-3-5.2c-1.4-2.5-0.6-5.6,1.9-7.1l8.1-4.7c2.5-1.4,5.6-0.6,7.1,1.9l3,5.2
		C310.4,200.6,309.5,203.8,307,205.2z"/>
</g>
</svg>
