<?xml version="1.0" encoding="utf-8"?>
<!-- Generator: Adobe Illustrator 25.4.1, SVG Export Plug-In . SVG Version: 6.00 Build 0)  -->
<svg version="1.1" id="Layer_1" xmlns="http://www.w3.org/2000/svg" xmlns:xlink="http://www.w3.org/1999/xlink" x="0px" y="0px"
	 viewBox="0 0 512 512" style="enable-background:new 0 0 512 512;" xml:space="preserve">
<style type="text/css">
	.st0{clip-path:url(#SVGID_00000021811230091445072280000011661678989896173711_);}
	.st1{fill:#FFFFFF;}
</style>
<g>
	<g>
		<g>
			<defs>
				<path id="SVGID_4_" d="M0,256c0,141.39,114.61,256,256,256s256-114.61,256-256S397.39,0,256,0S0,114.61,0,256"/>
			</defs>
			<use xlink:href="#SVGID_4_"  style="overflow:visible;"/>
			<clipPath id="SVGID_00000169552585592423309330000004440444349777573001_">
				<use xlink:href="#SVGID_4_"  style="overflow:visible;"/>
			</clipPath>
			<rect style="clip-path:url(#SVGID_00000169552585592423309330000004440444349777573001_);" width="512" height="512"/>
		</g>
	</g>
</g>
<g id="Layer_1-2">
	<g id="_443250592">
		<path class="st1" d="M307.46,242.62c-0.61-7.79-1.24-15.84-1.66-23.95c-0.21-4.38-0.03-8.77,0.55-13.12
			c-10.88-1.26-21.67-3.26-32.29-5.97l0,0l-8.56,32.29c-0.51,1.93-2.25,3.27-4.24,3.27c-0.38,0-0.75-0.05-1.12-0.15
			c-2.34-0.62-3.74-3.02-3.12-5.36l8.51-32.26l0,0c-3.34-0.89-6.58-1.79-9.76-2.67c-26.53-7.31-47.71-13.2-68.35-1.18
			c2.13,7.86,3.07,16,2.78,24.14c-0.42,8.46-1.08,16.82-1.71,24.96c-2.64,33.7-4.92,62.81,10.36,79.34
			c7.4,8,18.78,12.79,34.55,14.51c0.14,0.01,0.28,0.02,0.42,0.04l0,0h0.11c9.35,0.91,18.77,0.91,28.12,0h0.12h0.13h0.27
			c15.78-1.73,27.14-6.52,34.52-14.51C312.39,305.43,310.13,276.32,307.46,242.62z M209.57,229.46l8.21-8.21
			c4.62-4.65,12.13-4.67,16.78-0.05c0.02,0.01,0.03,0.03,0.04,0.05l8.21,8.21c4.65,4.64,4.65,12.16,0.01,16.81
			c0,0-0.01,0.01-0.01,0.01l-8.24,8.18c-4.64,4.65-12.16,4.65-16.81,0.01c0,0-0.01-0.01-0.01-0.01l-8.21-8.22
			c-4.65-4.62-4.67-12.13-0.04-16.78c0.01-0.02,0.03-0.03,0.04-0.05L209.57,229.46z M191.7,276.09c0-7.55,6.12-13.68,13.68-13.68
			c7.55,0,13.68,6.12,13.68,13.68c0,7.55-6.12,13.68-13.68,13.68C197.82,289.75,191.7,283.63,191.7,276.09L191.7,276.09z
			 M245.09,314.7l-8.22,8.21c-4.62,4.65-12.13,4.67-16.78,0.05c-0.02-0.01-0.03-0.03-0.05-0.05l-8.21-8.21
			c-4.65-4.64-4.65-12.16-0.01-16.81c0,0,0.01-0.01,0.01-0.01l8.21-8.21c4.62-4.65,12.13-4.67,16.78-0.05
			c0.02,0.01,0.03,0.03,0.05,0.05l8.21,8.21C249.65,302.5,249.58,310,245.09,314.7L245.09,314.7z M269.12,320.42
			c-7.55,0-13.68-6.12-13.68-13.68s6.12-13.68,13.68-13.68c7.55,0,13.68,6.12,13.68,13.68C282.79,314.3,276.67,320.42,269.12,320.42
			L269.12,320.42z M287.84,272.46l-8.22,8.22c-4.64,4.62-12.15,4.62-16.79,0l-8.22-8.22c-4.65-4.63-4.66-12.15-0.02-16.8
			c0.01-0.01,0.02-0.02,0.02-0.02l8.22-8.22c4.64-4.63,12.15-4.63,16.79,0l8.22,8.22c4.65,4.63,4.66,12.15,0.02,16.8
			C287.86,272.44,287.85,272.45,287.84,272.46z"/>
		<path class="st1" d="M274.02,306.74c0,2.71-2.19,4.9-4.9,4.9s-4.9-2.19-4.9-4.9c0-2.71,2.19-4.9,4.9-4.9
			C271.82,301.84,274.01,304.03,274.02,306.74z"/>
		<path class="st1" d="M282.53,264.05c0.01,0.82-0.32,1.61-0.91,2.19l-8.21,8.22c-1.21,1.21-3.17,1.21-4.39,0c0,0,0,0,0,0
			l-8.21-8.22c-1.21-1.21-1.21-3.18,0-4.39l8.22-8.22c1.21-1.2,3.17-1.2,4.39,0l8.18,8.22
			C282.19,262.43,282.53,263.22,282.53,264.05z"/>
		<path class="st1" d="M236.59,240.03l-8.22,8.22c-1.2,1.21-3.15,1.22-4.37,0.02c-0.01-0.01-0.02-0.02-0.02-0.02l-8.21-8.22
			c-1.21-1.2-1.22-3.15-0.02-4.37c0.01-0.01,0.02-0.02,0.02-0.02l8.22-8.17c1.2-1.21,3.15-1.22,4.37-0.02
			c0.01,0.01,0.02,0.02,0.02,0.02l8.22,8.22C237.78,236.9,237.78,238.83,236.59,240.03z"/>
		
			<ellipse transform="matrix(0.9239 -0.3827 0.3827 0.9239 -90.0174 99.6108)" class="st1" cx="205.38" cy="276.08" rx="4.9" ry="4.9"/>
		<path class="st1" d="M238.88,308.48l-8.22,8.23c-1.2,1.21-3.15,1.22-4.37,0.02c-0.01-0.01-0.02-0.02-0.02-0.02l-8.22-8.22
			c-1.21-1.2-1.22-3.16-0.01-4.38c0,0,0.01-0.01,0.01-0.01l8.22-8.22c1.2-1.21,3.15-1.22,4.37-0.02c0.01,0.01,0.02,0.02,0.02,0.02
			l8.22,8.22C239.92,305.27,239.76,307.17,238.88,308.48z"/>
		<path class="st1" d="M287.93,417.93v6.3h-79.87v-6.3c0-3.48,2.82-6.29,6.3-6.3h14.58c1.9,0,3.58-1.23,4.17-3.04
			c7.04-21.61,6.82-45.3,5.03-62.9c3.16,0.2,6.46,0.31,9.9,0.31c3.44,0,6.74-0.1,9.9-0.31c-1.79,17.62-2,41.3,5.02,62.9
			c0.59,1.81,2.27,3.04,4.18,3.04h14.54C285.14,411.66,287.93,414.47,287.93,417.93z"/>
		<path class="st1" d="M328.54,144.98l-2.43,5.12c-6.98,14.63-14.63,30.58-18.23,46.81c-10.64-1.21-21.19-3.15-31.58-5.79
			l12.17-46.08L328.54,144.98z"/>
		<path class="st1" d="M279.41,144.98l-11.59,43.92c-3.31-0.89-6.52-1.77-9.65-2.64c-26.73-7.41-50.07-13.9-73.25-1.37l0,0
			c-3.94-11.82-9.51-23.35-14.63-34.12c-0.95-1.97-1.87-3.9-2.77-5.79L279.41,144.98z"/>
		<path class="st1" d="M242.21,136.2h-27.9l19.75-19.75C238.58,122.13,241.41,128.98,242.21,136.2z"/>
		<path class="st1" d="M227.83,110.27l-19.75,19.75v-27.93C215.3,102.9,222.15,105.73,227.83,110.27z"/>
		<path class="st1" d="M199.33,102.09v27.9l-19.75-19.75C185.26,105.71,192.11,102.89,199.33,102.09z"/>
		<path class="st1" d="M193.1,136.2h-27.88c0.81-7.22,3.65-14.07,8.18-19.75L193.1,136.2z"/>
		<g id="_443250832">
			<path class="st1" d="M343.7,96.35l-46.18,14.38l-6.72,25.47h-9.08l7.93-30.05c0.38-1.46,1.49-2.62,2.93-3.07l48.5-15.1
				c2.31-0.72,4.78,0.57,5.5,2.89c0.72,2.31-0.57,4.78-2.89,5.5H343.7z"/>
		</g>
	</g>
</g>
</svg>
